<?xml version="1.0" standalone="no"?>
<!DOCTYPE svg PUBLIC "-//W3C//DTD SVG 20010904//EN"
 "http://www.w3.org/TR/2001/REC-SVG-20010904/DTD/svg10.dtd">
<svg version="1.0" xmlns="http://www.w3.org/2000/svg"
 width="600.000000pt" height="210.000000pt" viewBox="0 0 600.000000 210.000000"
 preserveAspectRatio="xMidYMid meet">

<g transform="translate(0.000000,210.000000) scale(0.100000,-0.100000)"
fill="#000000" stroke="none">
<path d="M55 1399 c-16 -25 19 -29 211 -27 169 3 199 5 199 18 0 13 -30 15
-202 18 -139 2 -204 -1 -208 -9z"/>
<path d="M3165 1399 c-10 -26 -1 -699 10 -699 14 0 19 690 5 704 -6 6 -11 4
-15 -5z"/>
<path d="M3266 1400 c-9 -25 138 -525 154 -525 17 0 164 500 154 525 -11 30
-29 -17 -89 -229 -33 -116 -62 -211 -65 -211 -3 0 -32 95 -65 211 -59 211 -78
259 -89 229z"/>
<path d="M3655 1399 c-10 -26 -1 -699 10 -699 14 0 19 690 5 704 -6 6 -11 4
-15 -5z"/>
<path d="M57 1304 c-17 -17 -2 -23 66 -26 l72 -3 0 -225 0 -225 -68 -5 c-96
-7 -85 -25 16 -25 l82 0 0 255 0 255 -80 3 c-45 1 -84 0 -88 -4z"/>
<path d="M296 1294 c-8 -20 -8 -468 0 -488 9 -23 174 -24 174 -1 0 12 -14 15
-70 15 l-70 0 0 230 0 230 70 0 c56 0 70 3 70 15 0 23 -165 22 -174 -1z"/>
<path d="M724 1219 c-43 -12 -90 -63 -102 -110 -25 -99 55 -199 159 -199 47 0
66 -79 24 -106 -33 -21 -56 -15 -80 23 -23 37 -35 41 -35 13 0 -33 44 -70 82
-70 41 1 65 18 79 58 16 47 -9 88 -64 103 -74 19 -107 38 -127 71 -53 88 10
198 113 198 65 0 113 -39 126 -104 4 -16 13 -32 20 -34 21 -7 7 61 -20 99 -23
33 -90 69 -124 68 -11 0 -34 -5 -51 -10z"/>
<path d="M1165 1220 c-11 -17 -145 -493 -145 -513 0 -15 7 -18 42 -15 49 4 66
28 19 28 -17 0 -31 5 -31 10 0 14 128 462 134 467 2 3 13 3 24 1 18 -3 16 -15
-39 -208 -33 -113 -59 -209 -59 -213 0 -5 5 -7 12 -5 12 4 139 438 132 450 -8
12 -82 10 -89 -2z"/>
<path d="M1490 965 c0 -170 4 -265 10 -265 6 0 10 95 10 265 0 170 -4 265 -10
265 -6 0 -10 -95 -10 -265z"/>
<path d="M1567 1224 c-15 -15 8 -24 61 -24 68 0 113 -24 138 -71 20 -40 14
-101 -15 -140 l-21 -28 25 -37 c29 -43 32 -82 9 -131 -23 -48 -58 -67 -131
-73 -65 -5 -86 -22 -36 -28 77 -10 159 30 192 95 18 35 13 114 -8 147 -19 28
-19 29 1 63 16 26 19 46 16 87 -5 63 -29 99 -84 126 -39 19 -133 28 -147 14z"/>
<path d="M1930 960 c0 -178 3 -269 10 -265 6 4 10 103 10 265 0 162 -4 261
-10 265 -7 4 -10 -87 -10 -265z"/>
<path d="M2002 1218 c3 -9 37 -14 111 -16 98 -2 107 -4 107 -22 0 -18 -9 -20
-107 -22 l-108 -3 0 -85 0 -85 68 -3 c58 -3 67 -5 67 -22 0 -14 -8 -20 -32
-22 -48 -4 -36 -23 15 -23 l42 0 0 45 0 45 -72 3 -73 3 0 59 0 60 110 0 110 0
0 50 0 50 -121 0 c-92 0 -120 -3 -117 -12z"/>
<path d="M2365 1219 c-10 -26 -1 -519 10 -522 14 -3 19 513 6 526 -7 7 -12 5
-16 -4z"/>
<path d="M2440 1000 c0 -147 4 -230 10 -230 6 0 10 83 10 230 0 147 -4 230
-10 230 -6 0 -10 -83 -10 -230z"/>
<path d="M3935 1220 c-11 -17 -145 -493 -145 -513 0 -15 7 -18 42 -15 49 4 66
28 19 28 -17 0 -31 5 -31 10 0 14 128 462 134 467 2 3 13 3 24 1 18 -3 16 -15
-39 -208 -33 -113 -59 -209 -59 -213 0 -5 5 -7 12 -5 12 4 139 438 131 451 -7
11 -81 8 -88 -3z"/>
<path d="M4262 1218 c4 -10 46 -14 156 -16 131 -2 152 0 152 13 0 13 -23 15
-156 15 -120 0 -155 -3 -152 -12z"/>
<path d="M4700 1020 c0 -225 3 -242 52 -287 73 -67 206 -38 244 53 17 41 20
444 4 444 -6 0 -10 -72 -10 -197 0 -178 -2 -201 -20 -239 -34 -70 -119 -95
-185 -54 -58 36 -65 65 -65 283 0 120 -4 198 -10 202 -7 4 -10 -67 -10 -205z"/>
<path d="M4770 1025 c0 -205 0 -206 25 -230 46 -47 125 -25 140 37 10 40 1
393 -10 393 -6 0 -11 -75 -13 -200 -2 -190 -3 -201 -23 -217 -30 -25 -54 -22
-78 8 -20 25 -21 40 -21 220 0 123 -4 194 -10 194 -6 0 -10 -75 -10 -205z"/>
<path d="M5135 1219 c-10 -26 -1 -519 10 -522 14 -3 19 513 6 526 -7 7 -12 5
-16 -4z"/>
<path d="M5210 1001 c0 -147 4 -231 10 -231 6 0 10 81 10 224 0 139 -4 227
-10 231 -7 4 -10 -73 -10 -224z"/>
<path d="M5681 1213 c-8 -16 -142 -485 -145 -508 -2 -15 87 -12 92 3 2 8 -8
12 -31 12 l-34 0 53 188 c30 103 61 211 69 240 13 43 19 52 39 52 23 0 23 -1
-37 -211 -52 -187 -62 -237 -41 -216 10 10 132 441 127 450 -2 4 -22 7 -43 7
-27 0 -42 -5 -49 -17z"/>
<path d="M1568 1154 c-5 -4 -8 -43 -8 -86 0 -63 3 -78 15 -78 12 0 15 14 15
70 l0 70 34 0 c48 0 66 -9 77 -36 12 -32 -8 -73 -38 -80 -28 -8 -30 -24 -3
-24 31 0 70 44 70 79 0 50 -36 81 -100 88 -30 3 -58 2 -62 -3z"/>
<path d="M4267 1154 c-17 -17 -3 -24 48 -24 l55 0 0 -215 c0 -139 4 -215 10
-215 7 0 9 78 8 228 l-3 227 -55 3 c-31 2 -59 0 -63 -4z"/>
<path d="M4447 1154 c-10 -11 -9 -452 2 -458 17 -11 21 28 21 230 l0 204 51 0
c36 0 49 4 47 13 -5 13 -109 23 -121 11z"/>
<path d="M711 1124 c-46 -58 -15 -125 64 -139 91 -17 130 -65 126 -158 -1 -16
-15 -42 -34 -63 -59 -65 -162 -56 -207 19 -11 18 -20 42 -20 55 0 21 -10 29
-22 16 -12 -12 15 -80 44 -111 52 -54 137 -62 204 -18 30 20 64 85 64 125 0
73 -59 144 -128 155 -58 10 -81 22 -88 49 -8 33 11 64 43 72 32 8 54 -4 71
-39 14 -29 38 -38 28 -11 -3 9 -6 20 -6 25 0 23 -42 49 -79 49 -31 0 -44 -6
-60 -26z"/>
<path d="M1260 1133 c0 -4 25 -95 55 -202 30 -106 55 -198 55 -203 0 -5 -10
-8 -22 -6 -19 3 -27 21 -61 138 -41 141 -43 147 -54 137 -7 -8 65 -276 79
-294 14 -18 77 -17 84 1 7 19 -110 429 -124 434 -7 2 -12 0 -12 -5z"/>
<path d="M4030 1133 c0 -5 25 -96 55 -203 30 -107 55 -199 55 -203 0 -5 -10
-7 -22 -5 -20 3 -27 21 -62 141 -21 75 -43 137 -47 137 -5 0 -9 -6 -9 -13 0
-23 72 -272 82 -284 14 -17 77 -17 84 1 4 12 -22 112 -97 369 -11 37 -24 67
-29 67 -6 0 -10 -3 -10 -7z"/>
<path d="M5780 1130 c0 -6 25 -97 55 -203 30 -105 55 -195 55 -200 0 -5 -10
-7 -22 -5 -20 3 -27 21 -62 141 -21 75 -43 137 -47 137 -5 0 -9 -7 -9 -15 0
-25 71 -269 82 -282 14 -18 77 -17 84 1 4 12 -22 112 -97 369 -11 37 -24 67
-29 67 -6 0 -10 -5 -10 -10z"/>
<path d="M3262 878 c3 -207 20 -250 28 -73 l5 110 29 -105 c31 -112 41 -134
52 -106 6 15 -67 297 -88 339 -23 45 -28 10 -26 -165z"/>
<path d="M3551 1043 c-19 -38 -93 -324 -87 -340 10 -26 21 -5 52 105 l29 103
5 -108 c8 -173 25 -127 28 77 2 174 -3 207 -27 163z"/>
<path d="M1568 934 c-5 -4 -8 -43 -8 -86 0 -59 3 -79 13 -76 7 3 13 29 15 71
l3 67 34 0 c47 0 65 -9 76 -38 11 -29 -9 -67 -41 -77 -26 -8 -26 -25 0 -25 33
0 70 44 70 83 0 49 -36 79 -102 85 -29 2 -56 0 -60 -4z"/>
<path d="M2000 850 l0 -79 108 -3 c102 -3 107 -4 110 -25 3 -22 0 -22 -105
-25 -146 -4 -139 -23 10 -23 l112 0 3 48 3 47 -110 0 -111 0 0 70 c0 40 -4 70
-10 70 -6 0 -10 -33 -10 -80z"/>
<path d="M2510 780 c0 -6 35 -10 85 -10 50 0 85 4 85 10 0 6 -35 10 -85 10
-50 0 -85 -4 -85 -10z"/>
<path d="M5280 780 c0 -6 35 -10 85 -10 50 0 85 4 85 10 0 6 -35 10 -85 10
-50 0 -85 -4 -85 -10z"/>
<path d="M55 719 c-16 -25 19 -29 211 -27 169 3 199 5 199 18 0 13 -30 15
-202 18 -139 2 -204 -1 -208 -9z"/>
<path d="M2442 708 c4 -10 34 -13 116 -13 152 0 148 19 -4 23 -91 2 -115 0
-112 -10z"/>
<path d="M5212 708 c4 -10 34 -13 116 -13 152 0 148 19 -4 23 -91 2 -115 0
-112 -10z"/>
</g>
</svg>
